<?xml version="1.0" encoding="UTF-8"?>
<svg id="Layer_2" data-name="Layer 2" xmlns="http://www.w3.org/2000/svg" viewBox="0 0 370.45 360.82">
  <defs>
    <style>
      .cls-1 {
        stroke-width: 23px;
      }

      .cls-1, .cls-2 {
        fill: none;
      }

      .cls-1, .cls-2, .cls-3 {
        stroke-linecap: round;
        stroke-linejoin: round;
      }

      .cls-1, .cls-3 {
        stroke: #000;
      }

      .cls-2 {
        opacity: .44;
        stroke: #fcdd00;
        stroke-width: 17px;
      }

      .cls-4 {
        fill: #c10000;
      }

      .cls-4, .cls-3 {
        opacity: .3;
      }

      .cls-5 {
        opacity: .8;
      }

      .cls-6 {
        fill: #3889c6;
      }

      .cls-3 {
        fill: #3abf26;
      }
    </style>
  </defs>
  <g id="Layer_1-2" data-name="Layer 1">
    <rect class="cls-6" x="29.71" y="16.21" width="302.44" height="302.44" transform="translate(-17.86 21.65) rotate(-6.53)"/>
    <circle class="cls-4" cx="142.79" cy="198.28" r="142.79"/>
    <polygon class="cls-3" points="369.95 40.83 50.45 126.44 284.34 360.32 369.95 40.83"/>
    <g class="cls-5">
      <path class="cls-1" d="m175.33,135.88c0,18.41-14.92,33.33-33.33,33.33s-33.33-14.92-33.33-33.33,14.92-33.33,33.33-33.33,33.33,14.92,33.33,33.33Z"/>
      <path class="cls-1" d="m152.05,36.55c-2.29-.67-4.87-.67-10.05-.67s-7.76,0-10.05.67c-3.35.98-6.3,2.98-8.45,5.72-1.47,1.88-2.43,4.28-4.35,9.08-2.76,6.91-10.43,10.47-17.49,8.11l-6.34-2.11c-4.5-1.5-6.75-2.25-8.95-2.38-3.24-.19-6.46.57-9.28,2.19-1.92,1.1-3.59,2.78-6.94,6.13-3.56,3.56-5.35,5.35-6.48,7.38-1.66,2.99-2.37,6.42-2.02,9.82.24,2.32,1.18,4.66,3.05,9.33,2.93,7.33.11,15.7-6.66,19.76l-3.08,1.85c-4.72,2.83-7.08,4.25-8.8,6.2-1.52,1.73-2.66,3.75-3.36,5.94-.79,2.47-.79,5.25-.79,10.81,0,6.58,0,9.88,1.05,12.69.93,2.49,2.44,4.72,4.41,6.51,2.23,2.02,5.25,3.23,11.3,5.65,6.19,2.47,9.37,9.34,7.26,15.66l-2.39,7.17c-1.66,4.97-2.48,7.45-2.56,9.89-.09,2.93.6,5.84,1.99,8.42,1.16,2.15,3.01,4,6.71,7.7,3.7,3.7,5.55,5.55,7.7,6.71,2.58,1.39,5.49,2.08,8.42,1.99,2.44-.08,4.92-.9,9.89-2.56l5.86-1.95c7.06-2.35,14.73,1.2,17.49,8.11,1.92,4.81,2.88,7.21,4.35,9.08,2.15,2.74,5.11,4.75,8.45,5.72,2.29.67,4.87.67,10.05.67s7.76,0,10.05-.67c3.35-.98,6.3-2.98,8.45-5.72,1.47-1.88,2.43-4.28,4.35-9.08,2.76-6.91,10.43-10.47,17.49-8.11l5.85,1.95c4.97,1.66,7.45,2.48,9.89,2.56,2.93.09,5.84-.6,8.42-1.99,2.15-1.16,4-3.01,7.7-6.71,3.7-3.7,5.55-5.55,6.71-7.7,1.39-2.58,2.08-5.49,1.99-8.42-.08-2.44-.9-4.92-2.56-9.89l-2.39-7.17c-2.11-6.32,1.08-13.19,7.27-15.67,6.05-2.42,9.08-3.63,11.31-5.65,1.97-1.79,3.48-4.02,4.41-6.51,1.05-2.82,1.05-6.11,1.05-12.69,0-5.56,0-8.34-.79-10.81-.7-2.19-1.84-4.21-3.36-5.94-1.72-1.95-4.08-3.37-8.8-6.2l-3.09-1.85c-6.77-4.06-9.59-12.43-6.66-19.76,1.87-4.68,2.81-7.02,3.05-9.33.35-3.4-.35-6.83-2.02-9.82-1.13-2.03-2.91-3.82-6.48-7.38-3.35-3.35-5.03-5.03-6.94-6.13-2.81-1.62-6.04-2.38-9.28-2.19-2.21.13-4.45.88-8.95,2.38l-6.34,2.11c-7.06,2.35-14.73-1.2-17.49-8.11-1.92-4.81-2.88-7.21-4.35-9.08-2.15-2.74-5.11-4.75-8.45-5.72Z"/>
    </g>
    <path class="cls-2" d="m260.4,164.21c0,55.27-44.73,100-100,100"/>
    <path class="cls-2" d="m284.91,185.88c0,55.27-44.73,100-100,100"/>
    <g>
      <path class="cls-1" d="m177.33,130.88c0,18.41-14.92,33.33-33.33,33.33s-33.33-14.92-33.33-33.33,14.92-33.33,33.33-33.33,33.33,14.92,33.33,33.33Z"/>
      <path class="cls-1" d="m154.05,31.55c-2.29-.67-4.87-.67-10.05-.67s-7.76,0-10.05.67c-3.35.98-6.3,2.98-8.45,5.72-1.47,1.88-2.43,4.28-4.35,9.08-2.76,6.91-10.43,10.47-17.49,8.11l-6.34-2.11c-4.5-1.5-6.75-2.25-8.95-2.38-3.24-.19-6.46.57-9.28,2.19-1.92,1.1-3.59,2.78-6.94,6.13-3.56,3.56-5.35,5.35-6.48,7.38-1.66,2.99-2.37,6.42-2.02,9.82.24,2.32,1.18,4.66,3.05,9.33,2.93,7.33.11,15.7-6.66,19.76l-3.08,1.85c-4.72,2.83-7.08,4.25-8.8,6.2-1.52,1.73-2.66,3.75-3.36,5.94-.79,2.47-.79,5.25-.79,10.81,0,6.58,0,9.88,1.05,12.69.93,2.49,2.44,4.72,4.41,6.51,2.23,2.02,5.25,3.23,11.3,5.65,6.19,2.47,9.37,9.34,7.26,15.66l-2.39,7.17c-1.66,4.97-2.48,7.45-2.56,9.89-.09,2.93.6,5.84,1.99,8.42,1.16,2.15,3.01,4,6.71,7.7,3.7,3.7,5.55,5.55,7.7,6.71,2.58,1.39,5.49,2.08,8.42,1.99,2.44-.08,4.92-.9,9.89-2.56l5.86-1.95c7.06-2.35,14.73,1.2,17.49,8.11,1.92,4.81,2.88,7.21,4.35,9.08,2.15,2.74,5.11,4.75,8.45,5.72,2.29.67,4.87.67,10.05.67s7.76,0,10.05-.67c3.35-.98,6.3-2.98,8.45-5.72,1.47-1.88,2.43-4.28,4.35-9.08,2.76-6.91,10.43-10.47,17.49-8.11l5.85,1.95c4.97,1.66,7.45,2.48,9.89,2.56,2.93.09,5.84-.6,8.42-1.99,2.15-1.16,4-3.01,7.7-6.71,3.7-3.7,5.55-5.55,6.71-7.7,1.39-2.58,2.08-5.49,1.99-8.42-.08-2.44-.9-4.92-2.56-9.89l-2.39-7.17c-2.11-6.32,1.08-13.19,7.27-15.67,6.05-2.42,9.08-3.63,11.31-5.65,1.97-1.79,3.48-4.02,4.41-6.51,1.05-2.82,1.05-6.11,1.05-12.69,0-5.56,0-8.34-.79-10.81-.7-2.19-1.84-4.21-3.36-5.94-1.72-1.95-4.08-3.37-8.8-6.2l-3.09-1.85c-6.77-4.06-9.59-12.43-6.66-19.76,1.87-4.68,2.81-7.02,3.05-9.33.35-3.4-.35-6.83-2.02-9.82-1.13-2.03-2.91-3.82-6.48-7.38-3.35-3.35-5.03-5.03-6.94-6.13-2.81-1.62-6.04-2.38-9.28-2.19-2.21.13-4.45.88-8.95,2.38l-6.34,2.11c-7.06,2.35-14.73-1.2-17.49-8.11-1.92-4.81-2.88-7.21-4.35-9.08-2.15-2.74-5.11-4.75-8.45-5.72Z"/>
    </g>
  </g>
</svg>